<svg xmlns="http://www.w3.org/2000/svg" viewBox="0 0 925.3 246.86"><defs><style>.cls-1{fill:#fff;}.cls-2{fill:#3064fd;}</style></defs><title>MyTask</title><g id="Layer_2" data-name="Layer 2"><g id="Layer_1-2" data-name="Layer 1"><rect class="cls-1" width="246.86" height="246.86" rx="48.86"/><rect class="cls-2" x="51.43" y="51.43" width="144" height="144" rx="72"/><rect class="cls-1" x="87.43" y="123.43" width="36" height="36" rx="18"/><path class="cls-1" d="M428.73,131.59c-.55-14.91-1.1-32.95-1.1-51h-.55c-3.87,15.84-9,33.51-13.81,48.06l-15.1,48.42H376.26L363,129c-4.05-14.55-8.29-32.22-11.23-48.43h-.37c-.74,16.76-1.29,35.91-2.21,51.37L347,179.09H321L329,55h37.37l12.15,41.43c3.87,14.36,7.73,29.82,10.5,44.37h.55c3.5-14.36,7.73-30.75,11.78-44.56L414.56,55H451.2L458,179.09H430.58Z"/><path class="cls-1" d="M499.62,89.06l13.44,44.19c1.47,5.34,3.31,12,4.42,16.75H518c1.29-4.78,2.76-11.59,4.05-16.75l11-44.19h30l-21,59.29c-12.89,35.72-21.54,50.08-31.67,59.1a51.55,51.55,0,0,1-27.06,12.33L477.53,196a35.46,35.46,0,0,0,12.15-4.78A32.15,32.15,0,0,0,501.28,180a7.27,7.27,0,0,0,1.47-4,10.09,10.09,0,0,0-1.29-4.6l-32.95-82.3Z"/><path class="cls-1" d="M593,78.57H559.65V55H655V78.57H621.14V179.09H593Z"/><path class="cls-1" d="M708,179.09l-1.66-9h-.55c-5.89,7.18-15.1,11.05-25.77,11.05-18.23,0-29.09-13.26-29.09-27.62,0-23.38,21-34.61,52.84-34.43v-1.29c0-4.78-2.58-11.59-16.39-11.59-9.2,0-19,3.13-24.85,6.81l-5.16-18c6.26-3.49,18.6-7.91,35-7.91,30,0,39.59,17.67,39.59,38.85v31.29c0,8.66.36,16.94,1.29,21.91Zm-3.31-42.53c-14.73-.18-26.15,3.32-26.15,14.18,0,7.18,4.79,10.68,11,10.68a15.3,15.3,0,0,0,14.55-10.31,20.49,20.49,0,0,0,.55-4.79Z"/><path class="cls-1" d="M753.89,154.61c5.15,3.13,15.83,6.81,24.12,6.81,8.47,0,12-2.95,12-7.55s-2.76-6.81-13.25-10.31c-18.6-6.26-25.78-16.39-25.59-27.06,0-16.76,14.36-29.46,36.64-29.46,10.49,0,19.88,2.39,25.4,5.15l-5,19.33a44.3,44.3,0,0,0-19.51-5.15c-6.82,0-10.68,2.76-10.68,7.36,0,4.24,3.5,6.45,14.54,10.31,17.12,5.9,24.31,14.55,24.49,27.81,0,16.75-13.26,29.09-39,29.09-11.79,0-22.28-2.58-29.09-6.26Z"/><path class="cls-1" d="M862,127h.37c2-3.68,4.24-7.36,6.44-10.86L887,89.06h33.69l-32.21,36.46,36.82,53.57H890.87l-21.73-37L862,150.92v28.17H834V48.37h28Z"/></g></g></svg>